<svg width="200" height="200" viewBox="30 10 50 50" xmlns="http://www.w3.org/2000/svg">
    <g transform="translate(100,100)" stroke-width="0">
        <path transform="rotate(38.91892,0,0)" d="M0 0 L-97.614 16.434 A99 99 0 0 1 -99 0 Z" fill="#00171F"/>
        <path transform="rotate(48.64865,0,0)" d="M0 0 L-97.614 16.434 A99 99 0 0 1 -99 0 Z" fill="#92140C"/>
        <path transform="rotate(58.37838,0,0)" d="M0 0 L-97.614 16.434 A99 99 0 0 1 -99 0 Z" fill="#00171F"/>
        <path transform="rotate(68.10811,0,0)" d="M0 0 L-97.614 16.434 A99 99 0 0 1 -99 0 Z" fill="#6BAA75"/>
        <path transform="rotate(77.83784,0,0)" d="M0 0 L-97.614 16.434 A99 99 0 0 1 -99 0 Z" fill="#92140C"/>
    </g>
</svg>
